# xmcd CD database file
#
# Track frame offsets:
#	150
#	27190
#	47285
#	68332
#	87957
#	106937
#	128165
#	147465
#	163495
#	185137
#	205440
#	225635
#	240715
#	269642
#
# Disc length: 4440 seconds
#
# Revision: 0
# Processed by: cddbd v1.5.1PL2 Copyright (c) Steve Scherf et al.
# Submitted via: CDex 1.50beta8
#
DISCID=c911560e
DTITLE=Various Artist - Girl's Box -Best Hits Compilation Summer-
DYEAR=2005
DGENRE=J-Pop
TTITLE0=永遠ラブリン (小倉優子)
TTITLE1=ring!Ring!!Ring!!! (嘉陽愛子)
TTITLE2=countdown(CLIP Size Version) (SweetS)
TTITLE3=reality (dream)
TTITLE4=ラブボディー (Girl's BOX Version) (長澤奈央)
TTITLE5=ZETTAI (Brand-New mix) (PARADISE GO!! GO!!)
TTITLE6=FLAME LOVE (vivace)
TTITLE7=deco boco (Becky)
TTITLE8=STAY WITH MY HEART-気づいてKIMOCHI- (the nanapremes featuring 田中亮)
TTITLE9=BON VOYAGE! (BON-BON BLANCO)
TTITLE10=愛のカケラ (若槻千夏)
TTITLE11=星に願いを (橘佳奈+吉村綾花)
TTITLE12=ふたりの愛ランド (Girl's BOX ALL STARS)
TTITLE13=CCCD
EXTD=YEAR: 2005
EXTT0=
EXTT1=
EXTT2=
EXTT3=
EXTT4=
EXTT5=
EXTT6=
EXTT7=
EXTT8=
EXTT9=
EXTT10=
EXTT11=
EXTT12=
EXTT13=
PLAYORDER=
